Coordinates
version=1
nRows=8
nColumns=63
inDegrees=yes

Units are S.I. units (second, meters, Newtons, ...)
If the header above contains a line with 'inDegrees', this indicates whether rotational values are in degrees (yes) or radians (no).

endheader
time	pelvis_tilt	pelvis_list	pelvis_rotation	pelvis_tx	pelvis_ty	pelvis_tz	hip_flexion_r	hip_adduction_r	hip_rotation_r	knee_angle_r	knee_angle_r_beta	ankle_angle_r	subtalar_angle_r	mtp_angle_r	hip_flexion_l	hip_adduction_l	hip_rotation_l	knee_angle_l	knee_angle_l_beta	ankle_angle_l	subtalar_angle_l	mtp_angle_l	L5_S1_Flex_Ext	L5_S1_Lat_Bending	L5_S1_axial_rotation	L4_L5_Flex_Ext	L4_L5_Lat_Bending	L4_L5_axial_rotation	L3_L4_Flex_Ext	L3_L4_Lat_Bending	L3_L4_axial_rotation	L2_L3_Flex_Ext	L2_L3_Lat_Bending	L2_L3_axial_rotation	L1_L2_Flex_Ext	L1_L2_Lat_Bending	L1_L2_axial_rotation	L1_T12_Flex_Ext	L1_T12_Lat_Bending	L1_T12_axial_rotation	Abs_r3	Abs_r2	Abs_r1	Abs_t1	Abs_t2	neck_flexion	neck_bending	neck_rotation	arm_flex_r	arm_add_r	arm_rot_r	elbow_flex_r	pro_sup_r	wrist_flex_r	wrist_dev_r	arm_flex_l	arm_add_l	arm_rot_l	elbow_flex_l	pro_sup_l	wrist_flex_l	wrist_dev_l
3.700000	1.818651	16.881164	94.134936	0.194785	0.537683	0.993967	-15.862444	4.336243	-6.280896	10.262031	0.179106	36.564995	9.830067	0.000000	-8.997431	-2.418311	8.888493	21.633294	0.377572	35.841537	-16.288736	0.000000	-1.523738	0.552438	5.598654	-2.829734	0.734742	5.948570	-2.503349	1.343197	5.948570	-1.741480	1.343197	4.898822	-1.414943	1.126531	4.548906	-0.870664	0.855726	4.198991	-10.883908	6.249285	31.138034	0.000000	0.000000	-2.814000	3.967974	-28.782867	-12.303838	-20.082843	-0.143798	44.237372	73.367717	-5.591590	4.908256	86.924941	17.850214	176.894190	0.053502	0.904635	-69.864890	-24.584287
3.716667	2.690158	17.436213	92.510172	0.194333	0.539478	0.995684	-16.108448	4.678537	-4.865084	10.642189	0.185741	36.125912	9.861287	0.000000	-9.725292	-2.968584	7.469036	21.507657	0.375379	35.694568	-16.617650	0.000000	-1.563925	0.661377	5.967467	-2.904365	0.879631	6.340434	-2.569372	1.608071	6.340434	-1.787410	1.608071	5.221534	-1.452261	1.348679	4.848567	-0.893627	1.024473	4.475601	-11.170959	7.481626	33.189263	0.000000	0.000000	-3.434348	3.788818	-30.380490	-14.352810	-20.585041	-2.320450	47.208813	72.921519	-5.238473	5.529034	85.906861	19.716960	181.265793	0.051466	0.882346	-69.872756	-24.617733
3.733333	3.579510	17.997057	90.898967	0.193768	0.541312	0.997845	-16.310355	5.017780	-3.477821	11.099514	0.193723	35.683643	9.895826	0.000000	-10.445568	-3.512862	6.028340	21.384319	0.373227	35.563608	-16.909276	0.000000	-1.601972	0.777001	6.356199	-2.975023	1.033411	6.753462	-2.631880	1.889200	6.753462	-1.830894	1.889200	5.561674	-1.487591	1.584460	5.164412	-0.915367	1.203574	4.767149	-11.442728	8.789588	35.351273	0.000000	0.000000	-4.082016	3.593218	-32.068701	-16.721519	-20.941383	-5.006979	50.897537	72.468260	-4.882791	6.087369	84.659310	21.684079	185.482994	0.049342	0.854987	-69.881389	-24.648238
3.750000	4.446513	18.558178	89.387588	0.193127	0.543102	1.000414	-16.464135	5.334272	-2.280093	11.620984	0.202824	35.288135	10.050135	0.000000	-11.127641	-4.034202	4.667124	21.284315	0.371481	35.466320	-17.155453	0.000000	-1.636758	0.895290	6.756005	-3.039623	1.190736	7.178255	-2.689029	2.176809	7.178255	-1.870650	2.176809	5.911504	-1.519893	1.825676	5.489254	-0.935243	1.386805	5.067003	-11.691197	10.127704	37.574871	0.000000	0.000000	-4.715884	3.428414	-33.771463	-19.384891	-21.060260	-8.238429	55.316278	71.898323	-4.551246	6.512319	83.240054	23.706356	189.431594	0.047193	0.827388	-69.890205	-24.674330
3.766667	5.289815	19.150962	87.949070	0.192554	0.544853	1.003355	-16.619281	5.645655	-1.071223	12.193665	0.212820	34.921983	10.089652	0.000000	-11.823915	-4.520438	3.370514	21.191933	0.369869	35.387090	-17.365155	0.000000	-1.670814	1.017170	7.180869	-3.102868	1.352836	7.629674	-2.744980	2.473148	7.629674	-1.909573	2.473148	6.283261	-1.551518	2.074213	5.834456	-0.954703	1.575597	5.385652	-11.934455	11.506433	39.937841	0.000000	0.000000	-5.308340	3.346741	-35.452743	-22.302643	-20.847446	-12.108665	60.426871	71.377773	-4.119349	6.844792	81.704666	25.774861	193.040673	0.045050	0.803161	-69.898767	-24.695647
3.783333	6.072480	19.792791	86.662535	0.192156	0.546514	1.006681	-16.795243	5.952025	0.067494	12.800249	0.223406	34.608310	10.032899	0.000000	-12.518130	-4.965697	2.215149	21.140429	0.368970	35.330320	-17.522464	0.000000	-1.704416	1.141470	7.632242	-3.165270	1.518155	8.109257	-2.800184	2.775370	8.109257	-1.947977	2.775370	6.678211	-1.582720	2.327686	6.201196	-0.973903	1.768137	5.724181	-12.174470	12.912538	42.448238	0.000000	0.000000	-5.817118	3.396450	-37.078018	-25.425091	-20.200026	-16.584213	66.167831	70.961491	-3.719314	6.963682	80.121558	27.874708	196.289167	0.042888	0.783013	-69.907062	-24.713118
3.800000	6.746485	20.506910	85.586568	0.192051	0.548069	1.010355	-17.018741	6.243553	1.158871	13.429940	0.234397	34.347012	9.782986	0.000000	-13.222898	-5.349679	1.268502	21.127823	0.368750	35.295929	-17.620125	0.000000	-1.738470	1.266884	8.113935	-3.228512	1.684955	8.621056	-2.856132	3.080301	8.621056	-1.986897	3.080301	7.099693	-1.614343	2.583429	6.592572	-0.993362	1.962403	6.085451	-12.417715	14.331243	45.127274	0.000000	0.000000	-6.245568	3.598422	-38.630699	-28.677632	-19.000765	-21.701654	72.472003	70.561863	-3.242519	7.019443	78.541330	29.989632	199.089929	0.040716	0.764956	-69.915160	-24.728422
3.816667	7.301349	21.304394	84.772358	0.192266	0.549492	1.014364	-17.307489	6.535178	2.137732	14.063930	0.245462	34.128924	9.363367	0.000000	-13.925794	-5.682538	0.593811	21.177247	0.369613	35.300525	-17.655151	0.000000	-1.773201	1.393718	8.617783	-3.293011	1.853645	9.156394	-2.913191	3.388686	9.156394	-2.026591	3.388686	7.540560	-1.646594	2.842069	7.001949	-1.013207	2.158869	6.463337	-12.665794	15.766015	47.929522	0.000000	0.000000	-6.574695	3.963961	-40.076345	-31.965224	-17.215969	-27.345163	79.209863	70.184665	-2.727512	6.973316	77.023519	32.097646	201.455947	0.038532	0.743800	-69.923115	-24.742104
